<svg width="16" height="16" viewBox="0 0 16 16" fill="none" xmlns="http://www.w3.org/2000/svg">
<g clip-path="url(#clip0_189_414)">
<path d="M8 16C12.4183 16 16 12.4183 16 8C16 3.58172 12.4183 0 8 0C3.58172 0 0 3.58172 0 8C0 12.4183 3.58172 16 8 16Z" fill="#F3BA2F"/>
<path d="M6.058 7.202L8 5.26L9.94302 7.203L11.073 6.073L8 3L4.928 6.072L6.058 7.202ZM3 8L4.13 6.87L5.26 8L4.13 9.12996L3 8ZM6.058 8.798L8 10.74L9.94302 8.797L11.073 9.92649L8 13L4.928 9.928L4.9265 9.92649L6.058 8.798ZM10.74 8L11.87 6.87L13 8L11.87 9.12996L10.74 8ZM9.14702 7.999V8L8 9.14702L6.8545 8.002L6.8525 8L6.8545 7.9985L7.055 7.7975L7.1525 7.7L8 6.853L9.14702 7.999Z" fill="white"/>
</g>
<defs>
<clipPath id="clip0_189_414">
<rect width="16" height="16" fill="white"/>
</clipPath>
</defs>
</svg>
