<svg width="648" height="109" viewBox="0 0 648 109" fill="none" xmlns="http://www.w3.org/2000/svg">
<path fill-rule="evenodd" clip-rule="evenodd" d="M55.2199 31.816H43.9399V2.872H38.4679V36.232H55.2199V31.816ZM59.604 15.832C58.516 17.88 57.972 20.232 57.972 22.888C57.972 25.544 58.516 27.928 59.604 30.04C60.724 32.12 62.228 33.752 64.116 34.936C66.004 36.088 68.084 36.664 70.356 36.664C72.404 36.664 74.228 36.248 75.828 35.416C77.428 34.584 78.692 33.544 79.62 32.296V36.232H85.14V9.78401H79.62V13.624C78.692 12.408 77.444 11.4 75.876 10.6C74.34 9.76801 72.532 9.35201 70.452 9.35201C68.148 9.35201 66.036 9.92801 64.116 11.08C62.228 12.2 60.724 13.784 59.604 15.832ZM78.468 18.232C79.236 19.576 79.62 21.16 79.62 22.984C79.62 24.808 79.236 26.408 78.468 27.784C77.732 29.128 76.756 30.152 75.54 30.856C74.324 31.56 73.012 31.912 71.604 31.912C70.228 31.912 68.916 31.56 67.668 30.856C66.452 30.12 65.46 29.064 64.692 27.688C63.956 26.312 63.588 24.712 63.588 22.888C63.588 21.064 63.956 19.496 64.692 18.184C65.46 16.84 66.452 15.832 67.668 15.16C68.884 14.456 70.196 14.104 71.604 14.104C73.012 14.104 74.324 14.456 75.54 15.16C76.756 15.864 77.732 16.888 78.468 18.232ZM116.279 36.232V9.78401H110.807V24.52C110.807 26.888 110.199 28.712 108.983 29.992C107.799 31.24 106.183 31.864 104.135 31.864C102.087 31.864 100.471 31.24 99.2873 29.992C98.1033 28.712 97.5113 26.888 97.5113 24.52V9.78401H92.0873V25.336C92.0873 27.736 92.5513 29.784 93.4793 31.48C94.4393 33.176 95.7353 34.456 97.3673 35.32C99.0313 36.184 100.903 36.616 102.983 36.616C104.551 36.616 106.023 36.312 107.399 35.704C108.807 35.064 109.943 34.2 110.807 33.112V36.232H116.279ZM142.411 10.648C140.779 9.784 138.923 9.35201 136.843 9.35201C135.275 9.35201 133.787 9.65601 132.379 10.264C131.003 10.872 129.867 11.72 128.971 12.808V9.78401H123.499V36.232H128.971V21.448C128.971 19.08 129.563 17.272 130.747 16.024C131.963 14.744 133.595 14.104 135.643 14.104C137.691 14.104 139.307 14.744 140.491 16.024C141.675 17.272 142.267 19.08 142.267 21.448V36.232H147.691V20.632C147.691 18.232 147.227 16.184 146.299 14.488C145.371 12.792 144.075 11.512 142.411 10.648ZM154.479 15.832C153.391 17.88 152.847 20.264 152.847 22.984C152.847 25.704 153.391 28.104 154.479 30.184C155.599 32.232 157.135 33.832 159.087 34.984C161.039 36.104 163.279 36.664 165.807 36.664C168.943 36.664 171.567 35.88 173.679 34.312C175.791 32.712 177.231 30.568 177.999 27.88H172.095C171.071 30.664 168.975 32.056 165.807 32.056C163.567 32.056 161.775 31.256 160.431 29.656C159.119 28.056 158.463 25.832 158.463 22.984C158.463 20.136 159.119 17.928 160.431 16.36C161.775 14.76 163.567 13.96 165.807 13.96C167.407 13.96 168.735 14.328 169.791 15.064C170.847 15.8 171.615 16.824 172.095 18.136H177.999C177.263 15.32 175.839 13.16 173.727 11.656C171.647 10.12 169.007 9.35201 165.807 9.35201C163.279 9.35201 161.039 9.91201 159.087 11.032C157.135 12.152 155.599 13.752 154.479 15.832ZM202.508 10.648C200.94 9.784 199.148 9.35201 197.132 9.35201C195.436 9.35201 193.868 9.65601 192.428 10.264C191.02 10.872 189.852 11.736 188.924 12.856V0.712006H183.452V36.232H188.924V21.448C188.924 19.08 189.516 17.272 190.7 16.024C191.916 14.744 193.548 14.104 195.596 14.104C197.644 14.104 199.26 14.744 200.444 16.024C201.628 17.272 202.22 19.08 202.22 21.448V36.232H207.644V20.632C207.644 18.232 207.18 16.184 206.252 14.488C205.356 12.792 204.108 11.512 202.508 10.648ZM234.677 48.664L250.901 9.78401H245.237L237.509 29.944L230.069 9.78401H223.973L234.389 35.8L229.013 48.664H234.677ZM259.734 34.984C261.75 36.104 264.006 36.664 266.502 36.664C269.03 36.664 271.334 36.104 273.414 34.984C275.526 33.832 277.19 32.216 278.406 30.136C279.622 28.056 280.23 25.672 280.23 22.984C280.23 20.296 279.638 17.912 278.454 15.832C277.27 13.752 275.654 12.152 273.606 11.032C271.558 9.91201 269.27 9.35201 266.742 9.35201C264.214 9.35201 261.926 9.91201 259.878 11.032C257.83 12.152 256.214 13.752 255.03 15.832C253.846 17.912 253.254 20.296 253.254 22.984C253.254 25.704 253.83 28.104 254.982 30.184C256.134 32.232 257.718 33.832 259.734 34.984ZM270.438 30.904C269.222 31.576 267.91 31.912 266.502 31.912C264.294 31.912 262.454 31.144 260.982 29.608C259.542 28.04 258.822 25.832 258.822 22.984C258.822 21.064 259.174 19.448 259.878 18.136C260.582 16.792 261.526 15.784 262.71 15.112C263.926 14.44 265.238 14.104 266.646 14.104C268.054 14.104 269.366 14.44 270.582 15.112C271.798 15.784 272.774 16.792 273.51 18.136C274.246 19.448 274.614 21.064 274.614 22.984C274.614 24.904 274.23 26.536 273.462 27.88C272.694 29.224 271.686 30.232 270.438 30.904ZM309.592 36.232V9.78401H304.12V24.52C304.12 26.888 303.512 28.712 302.296 29.992C301.112 31.24 299.496 31.864 297.448 31.864C295.4 31.864 293.784 31.24 292.6 29.992C291.416 28.712 290.824 26.888 290.824 24.52V9.78401H285.4V25.336C285.4 27.736 285.864 29.784 286.792 31.48C287.752 33.176 289.048 34.456 290.68 35.32C292.344 36.184 294.216 36.616 296.296 36.616C297.864 36.616 299.336 36.312 300.712 35.704C302.12 35.064 303.256 34.2 304.12 33.112V36.232H309.592ZM325.452 10.504C324.14 11.24 323.084 12.28 322.284 13.624V9.78401H316.812V36.232H322.284V22.312C322.284 19.624 322.828 17.736 323.916 16.648C325.036 15.56 326.668 15.016 328.812 15.016H330.204V9.35201C328.38 9.35201 326.796 9.73601 325.452 10.504ZM352.406 34.984C354.422 36.104 356.678 36.664 359.174 36.664C361.702 36.664 364.006 36.104 366.086 34.984C368.198 33.832 369.862 32.216 371.078 30.136C372.294 28.056 372.902 25.672 372.902 22.984C372.902 20.296 372.31 17.912 371.126 15.832C369.942 13.752 368.326 12.152 366.278 11.032C364.23 9.91201 361.942 9.35201 359.414 9.35201C356.886 9.35201 354.598 9.91201 352.55 11.032C350.502 12.152 348.886 13.752 347.702 15.832C346.518 17.912 345.926 20.296 345.926 22.984C345.926 25.704 346.502 28.104 347.654 30.184C348.806 32.232 350.39 33.832 352.406 34.984ZM363.11 30.904C361.894 31.576 360.582 31.912 359.174 31.912C356.966 31.912 355.126 31.144 353.654 29.608C352.214 28.04 351.494 25.832 351.494 22.984C351.494 21.064 351.846 19.448 352.55 18.136C353.254 16.792 354.198 15.784 355.382 15.112C356.598 14.44 357.91 14.104 359.318 14.104C360.726 14.104 362.038 14.44 363.254 15.112C364.47 15.784 365.446 16.792 366.182 18.136C366.918 19.448 367.286 21.064 367.286 22.984C367.286 24.904 366.902 26.536 366.134 27.88C365.366 29.224 364.358 30.232 363.11 30.904ZM405.624 36.232L413.832 9.78401H408.456L402.984 30.952L397.608 9.78401H391.896L386.28 31.048L380.76 9.78401H375.192L383.448 36.232H389.208L394.536 16.696L399.864 36.232H405.624ZM436.833 10.648C435.201 9.784 433.345 9.35201 431.265 9.35201C429.697 9.35201 428.209 9.65601 426.801 10.264C425.425 10.872 424.289 11.72 423.393 12.808V9.78401H417.921V36.232H423.393V21.448C423.393 19.08 423.985 17.272 425.169 16.024C426.385 14.744 428.017 14.104 430.065 14.104C432.113 14.104 433.729 14.744 434.913 16.024C436.097 17.272 436.689 19.08 436.689 21.448V36.232H442.113V20.632C442.113 18.232 441.649 16.184 440.721 14.488C439.793 12.792 438.497 11.512 436.833 10.648ZM461.37 15.832C460.282 17.88 459.738 20.264 459.738 22.984C459.738 25.704 460.282 28.104 461.37 30.184C462.49 32.232 464.026 33.832 465.978 34.984C467.93 36.104 470.17 36.664 472.698 36.664C475.834 36.664 478.458 35.88 480.57 34.312C482.682 32.712 484.122 30.568 484.89 27.88H478.986C477.962 30.664 475.866 32.056 472.698 32.056C470.458 32.056 468.666 31.256 467.322 29.656C466.01 28.056 465.354 25.832 465.354 22.984C465.354 20.136 466.01 17.928 467.322 16.36C468.666 14.76 470.458 13.96 472.698 13.96C474.298 13.96 475.626 14.328 476.682 15.064C477.738 15.8 478.506 16.824 478.986 18.136H484.89C484.154 15.32 482.73 13.16 480.618 11.656C478.538 10.12 475.898 9.35201 472.698 9.35201C470.17 9.35201 467.93 9.91201 465.978 11.032C464.026 12.152 462.49 13.752 461.37 15.832ZM498.983 10.504C497.671 11.24 496.615 12.28 495.815 13.624V9.78401H490.343V36.232H495.815V22.312C495.815 19.624 496.359 17.736 497.447 16.648C498.567 15.56 500.199 15.016 502.343 15.016H503.735V9.35201C501.911 9.35201 500.327 9.73601 498.983 10.504ZM516.349 48.664L532.573 9.78401H526.909L519.181 29.944L511.741 9.78401H505.645L516.061 35.8L510.685 48.664H516.349ZM545.966 10.6C544.366 11.432 543.102 12.456 542.174 13.672V9.78401H536.702V48.808H542.174V32.392C543.166 33.608 544.446 34.632 546.014 35.464C547.582 36.264 549.374 36.664 551.39 36.664C553.694 36.664 555.79 36.088 557.678 34.936C559.598 33.752 561.102 32.12 562.19 30.04C563.278 27.928 563.822 25.544 563.822 22.888C563.822 20.232 563.278 17.88 562.19 15.832C561.102 13.784 559.598 12.2 557.678 11.08C555.79 9.92801 553.694 9.35201 551.39 9.35201C549.374 9.35201 547.566 9.76801 545.966 10.6ZM557.102 18.184C557.87 19.496 558.254 21.064 558.254 22.888C558.254 24.712 557.87 26.312 557.102 27.688C556.366 29.064 555.374 30.12 554.126 30.856C552.91 31.56 551.598 31.912 550.19 31.912C548.814 31.912 547.502 31.56 546.254 30.856C545.038 30.152 544.046 29.128 543.278 27.784C542.542 26.408 542.174 24.808 542.174 22.984C542.174 21.16 542.542 19.576 543.278 18.232C544.046 16.888 545.038 15.864 546.254 15.16C547.502 14.456 548.814 14.104 550.19 14.104C551.598 14.104 552.91 14.456 554.126 15.16C555.374 15.832 556.366 16.84 557.102 18.184ZM575.618 28.888V14.248H582.05V9.78401H575.618V3.208H570.098V9.78401H566.978V14.248H570.098V28.888C570.098 31.48 570.754 33.352 572.066 34.504C573.378 35.656 575.266 36.232 577.73 36.232H582.05V31.672H578.69C577.57 31.672 576.77 31.464 576.29 31.048C575.842 30.6 575.618 29.88 575.618 28.888ZM591.797 34.984C593.813 36.104 596.069 36.664 598.565 36.664C601.093 36.664 603.397 36.104 605.477 34.984C607.589 33.832 609.253 32.216 610.469 30.136C611.685 28.056 612.293 25.672 612.293 22.984C612.293 20.296 611.701 17.912 610.517 15.832C609.333 13.752 607.717 12.152 605.669 11.032C603.621 9.91201 601.333 9.35201 598.805 9.35201C596.277 9.35201 593.989 9.91201 591.941 11.032C589.893 12.152 588.277 13.752 587.093 15.832C585.909 17.912 585.317 20.296 585.317 22.984C585.317 25.704 585.893 28.104 587.045 30.184C588.197 32.232 589.781 33.832 591.797 34.984ZM602.501 30.904C601.285 31.576 599.973 31.912 598.565 31.912C596.357 31.912 594.517 31.144 593.045 29.608C591.605 28.04 590.885 25.832 590.885 22.984C590.885 21.064 591.237 19.448 591.941 18.136C592.645 16.792 593.589 15.784 594.773 15.112C595.989 14.44 597.301 14.104 598.709 14.104C600.117 14.104 601.429 14.44 602.645 15.112C603.861 15.784 604.837 16.792 605.573 18.136C606.309 19.448 606.677 21.064 606.677 22.984C606.677 24.904 606.293 26.536 605.525 27.88C604.757 29.224 603.749 30.232 602.501 30.904ZM9.43785 87.888V73.248H15.8699V68.784H9.43785V62.208H3.91785V68.784H0.797852V73.248H3.91785V87.888C3.91785 90.48 4.57385 92.352 5.88585 93.504C7.19785 94.656 9.08585 95.232 11.5499 95.232H15.8699V90.672H12.5099C11.3899 90.672 10.5899 90.464 10.1099 90.048C9.66185 89.6 9.43785 88.88 9.43785 87.888ZM25.6172 93.984C27.6332 95.104 29.8892 95.664 32.3852 95.664C34.9132 95.664 37.2172 95.104 39.2972 93.984C41.4092 92.832 43.0732 91.216 44.2892 89.136C45.5052 87.056 46.1132 84.672 46.1132 81.984C46.1132 79.296 45.5212 76.912 44.3372 74.832C43.1532 72.752 41.5372 71.152 39.4892 70.032C37.4412 68.912 35.1532 68.352 32.6252 68.352C30.0972 68.352 27.8092 68.912 25.7612 70.032C23.7132 71.152 22.0972 72.752 20.9132 74.832C19.7292 76.912 19.1372 79.296 19.1372 81.984C19.1372 84.704 19.7132 87.104 20.8652 89.184C22.0172 91.232 23.6012 92.832 25.6172 93.984ZM36.3212 89.904C35.1052 90.576 33.7932 90.912 32.3852 90.912C30.1772 90.912 28.3372 90.144 26.8652 88.608C25.4252 87.04 24.7052 84.832 24.7052 81.984C24.7052 80.064 25.0572 78.448 25.7612 77.136C26.4652 75.792 27.4092 74.784 28.5932 74.112C29.8092 73.44 31.1212 73.104 32.5292 73.104C33.9372 73.104 35.2492 73.44 36.4652 74.112C37.6812 74.784 38.6572 75.792 39.3932 77.136C40.1292 78.448 40.4972 80.064 40.4972 81.984C40.4972 83.904 40.1132 85.536 39.3452 86.88C38.5772 88.224 37.5692 89.232 36.3212 89.904ZM74.1786 95.232L61.9866 82.032L74.1786 68.784H66.5946L56.9946 80.352V59.712H51.5226V95.232H56.9946V83.856L66.7866 95.232H74.1786ZM102.149 84.048C102.277 83.248 102.341 82.352 102.341 81.36C102.341 78.8 101.797 76.544 100.709 74.592C99.6207 72.608 98.1007 71.072 96.1487 69.984C94.1967 68.896 91.9727 68.352 89.4767 68.352C86.8847 68.352 84.5807 68.912 82.5647 70.032C80.5807 71.152 79.0287 72.752 77.9087 74.832C76.8207 76.88 76.2767 79.264 76.2767 81.984C76.2767 84.704 76.8367 87.104 77.9567 89.184C79.1087 91.232 80.6767 92.832 82.6607 93.984C84.6767 95.104 86.9487 95.664 89.4767 95.664C92.5807 95.664 95.1727 94.896 97.2527 93.36C99.3647 91.792 100.821 89.792 101.621 87.36H95.7167C94.5007 89.824 92.4207 91.056 89.4767 91.056C87.4287 91.056 85.7007 90.416 84.2927 89.136C82.8847 87.856 82.1007 86.16 81.9407 84.048H102.149ZM94.4687 74.784C95.8767 76 96.5967 77.616 96.6287 79.632H81.9887C82.2447 77.584 83.0447 75.968 84.3887 74.784C85.7327 73.568 87.3487 72.96 89.2367 72.96C91.3167 72.96 93.0607 73.568 94.4687 74.784ZM126.638 69.648C125.006 68.784 123.15 68.352 121.07 68.352C119.502 68.352 118.014 68.656 116.606 69.264C115.23 69.872 114.094 70.72 113.198 71.808V68.784H107.726V95.232H113.198V80.448C113.198 78.08 113.79 76.272 114.974 75.024C116.19 73.744 117.822 73.104 119.87 73.104C121.918 73.104 123.534 73.744 124.718 75.024C125.902 76.272 126.494 78.08 126.494 80.448V95.232H131.918V79.632C131.918 77.232 131.454 75.184 130.526 73.488C129.598 71.792 128.302 70.512 126.638 69.648ZM142.882 94.56C144.546 95.296 146.418 95.664 148.498 95.664C150.546 95.664 152.322 95.328 153.826 94.656C155.362 93.984 156.546 93.056 157.378 91.872C158.21 90.688 158.626 89.344 158.626 87.84C158.594 86.144 158.13 84.784 157.234 83.76C156.338 82.736 155.266 81.968 154.018 81.456C152.802 80.912 151.234 80.384 149.314 79.872C147.874 79.456 146.786 79.12 146.05 78.864C145.314 78.576 144.69 78.192 144.178 77.712C143.666 77.232 143.41 76.64 143.41 75.936C143.41 75.04 143.794 74.32 144.562 73.776C145.33 73.232 146.434 72.96 147.874 72.96C149.346 72.96 150.514 73.312 151.378 74.016C152.242 74.72 152.722 75.664 152.818 76.848H158.29C158.162 74.224 157.17 72.16 155.314 70.656C153.49 69.12 151.074 68.352 148.066 68.352C146.05 68.352 144.258 68.688 142.69 69.36C141.154 70.032 139.97 70.96 139.138 72.144C138.306 73.296 137.89 74.576 137.89 75.984C137.89 77.712 138.338 79.104 139.234 80.16C140.162 81.216 141.25 82 142.498 82.512C143.746 83.024 145.362 83.552 147.346 84.096C149.394 84.672 150.882 85.2 151.81 85.68C152.77 86.16 153.25 86.896 153.25 87.888C153.25 88.816 152.818 89.584 151.954 90.192C151.122 90.768 149.938 91.056 148.402 91.056C146.93 91.056 145.698 90.688 144.706 89.952C143.746 89.184 143.218 88.24 143.122 87.12H137.458C137.522 88.72 138.034 90.176 138.994 91.488C139.954 92.768 141.25 93.792 142.882 94.56ZM177.295 64.272C177.967 64.944 178.799 65.28 179.791 65.28C180.751 65.28 181.567 64.944 182.239 64.272C182.911 63.6 183.247 62.768 183.247 61.776C183.247 60.784 182.911 59.952 182.239 59.28C181.567 58.608 180.751 58.272 179.791 58.272C178.799 58.272 177.967 58.608 177.295 59.28C176.623 59.952 176.287 60.784 176.287 61.776C176.287 62.768 176.623 63.6 177.295 64.272ZM182.479 95.232V68.784H177.007V95.232H182.479ZM208.575 69.648C206.943 68.784 205.087 68.352 203.007 68.352C201.439 68.352 199.951 68.656 198.543 69.264C197.167 69.872 196.031 70.72 195.135 71.808V68.784H189.663V95.232H195.135V80.448C195.135 78.08 195.727 76.272 196.911 75.024C198.127 73.744 199.759 73.104 201.807 73.104C203.855 73.104 205.471 73.744 206.655 75.024C207.839 76.272 208.431 78.08 208.431 80.448V95.232H213.855V79.632C213.855 77.232 213.391 75.184 212.463 73.488C211.535 71.792 210.239 70.512 208.575 69.648ZM237.288 94.56C238.952 95.296 240.824 95.664 242.904 95.664C244.952 95.664 246.728 95.328 248.232 94.656C249.768 93.984 250.952 93.056 251.784 91.872C252.616 90.688 253.032 89.344 253.032 87.84C253 86.144 252.536 84.784 251.64 83.76C250.744 82.736 249.672 81.968 248.424 81.456C247.208 80.912 245.64 80.384 243.72 79.872C242.28 79.456 241.192 79.12 240.456 78.864C239.72 78.576 239.096 78.192 238.584 77.712C238.072 77.232 237.816 76.64 237.816 75.936C237.816 75.04 238.2 74.32 238.968 73.776C239.736 73.232 240.84 72.96 242.28 72.96C243.752 72.96 244.92 73.312 245.784 74.016C246.648 74.72 247.128 75.664 247.224 76.848H252.696C252.568 74.224 251.576 72.16 249.72 70.656C247.896 69.12 245.48 68.352 242.472 68.352C240.456 68.352 238.664 68.688 237.096 69.36C235.56 70.032 234.376 70.96 233.544 72.144C232.712 73.296 232.296 74.576 232.296 75.984C232.296 77.712 232.744 79.104 233.64 80.16C234.568 81.216 235.656 82 236.904 82.512C238.152 83.024 239.768 83.552 241.752 84.096C243.8 84.672 245.288 85.2 246.216 85.68C247.176 86.16 247.656 86.896 247.656 87.888C247.656 88.816 247.224 89.584 246.36 90.192C245.528 90.768 244.344 91.056 242.808 91.056C241.336 91.056 240.104 90.688 239.112 89.952C238.152 89.184 237.624 88.24 237.528 87.12H231.864C231.928 88.72 232.44 90.176 233.4 91.488C234.36 92.768 235.656 93.792 237.288 94.56ZM282.992 84.048C283.12 83.248 283.184 82.352 283.184 81.36C283.184 78.8 282.64 76.544 281.552 74.592C280.464 72.608 278.944 71.072 276.992 69.984C275.04 68.896 272.816 68.352 270.32 68.352C267.728 68.352 265.424 68.912 263.408 70.032C261.424 71.152 259.872 72.752 258.752 74.832C257.664 76.88 257.12 79.264 257.12 81.984C257.12 84.704 257.68 87.104 258.8 89.184C259.952 91.232 261.52 92.832 263.504 93.984C265.52 95.104 267.792 95.664 270.32 95.664C273.424 95.664 276.016 94.896 278.096 93.36C280.208 91.792 281.664 89.792 282.464 87.36H276.56C275.344 89.824 273.264 91.056 270.32 91.056C268.272 91.056 266.544 90.416 265.136 89.136C263.728 87.856 262.944 86.16 262.784 84.048H282.992ZM275.312 74.784C276.72 76 277.44 77.616 277.472 79.632H262.832C263.088 77.584 263.888 75.968 265.232 74.784C266.576 73.568 268.192 72.96 270.08 72.96C272.16 72.96 273.904 73.568 275.312 74.784ZM288.377 74.832C287.289 76.88 286.745 79.264 286.745 81.984C286.745 84.704 287.289 87.104 288.377 89.184C289.497 91.232 291.033 92.832 292.985 93.984C294.937 95.104 297.177 95.664 299.705 95.664C302.841 95.664 305.465 94.88 307.577 93.312C309.689 91.712 311.129 89.568 311.897 86.88H305.993C304.969 89.664 302.873 91.056 299.705 91.056C297.465 91.056 295.673 90.256 294.329 88.656C293.017 87.056 292.361 84.832 292.361 81.984C292.361 79.136 293.017 76.928 294.329 75.36C295.673 73.76 297.465 72.96 299.705 72.96C301.305 72.96 302.633 73.328 303.689 74.064C304.745 74.8 305.513 75.824 305.993 77.136H311.897C311.161 74.32 309.737 72.16 307.625 70.656C305.545 69.12 302.905 68.352 299.705 68.352C297.177 68.352 294.937 68.912 292.985 70.032C291.033 71.152 289.497 72.752 288.377 74.832ZM322.055 93.984C324.071 95.104 326.327 95.664 328.823 95.664C331.351 95.664 333.655 95.104 335.735 93.984C337.847 92.832 339.511 91.216 340.727 89.136C341.943 87.056 342.551 84.672 342.551 81.984C342.551 79.296 341.959 76.912 340.775 74.832C339.591 72.752 337.975 71.152 335.927 70.032C333.879 68.912 331.591 68.352 329.063 68.352C326.535 68.352 324.247 68.912 322.199 70.032C320.151 71.152 318.535 72.752 317.351 74.832C316.167 76.912 315.575 79.296 315.575 81.984C315.575 84.704 316.151 87.104 317.303 89.184C318.455 91.232 320.039 92.832 322.055 93.984ZM332.759 89.904C331.543 90.576 330.231 90.912 328.823 90.912C326.615 90.912 324.775 90.144 323.303 88.608C321.863 87.04 321.143 84.832 321.143 81.984C321.143 80.064 321.495 78.448 322.199 77.136C322.903 75.792 323.847 74.784 325.031 74.112C326.247 73.44 327.559 73.104 328.967 73.104C330.375 73.104 331.687 73.44 332.903 74.112C334.119 74.784 335.095 75.792 335.831 77.136C336.567 78.448 336.935 80.064 336.935 81.984C336.935 83.904 336.551 85.536 335.783 86.88C335.015 88.224 334.007 89.232 332.759 89.904ZM366.872 69.648C365.24 68.784 363.384 68.352 361.304 68.352C359.736 68.352 358.248 68.656 356.84 69.264C355.464 69.872 354.328 70.72 353.432 71.808V68.784H347.96V95.232H353.432V80.448C353.432 78.08 354.024 76.272 355.208 75.024C356.424 73.744 358.056 73.104 360.104 73.104C362.152 73.104 363.768 73.744 364.952 75.024C366.136 76.272 366.728 78.08 366.728 80.448V95.232H372.152V79.632C372.152 77.232 371.688 75.184 370.76 73.488C369.832 71.792 368.536 70.512 366.872 69.648ZM378.94 74.832C377.852 76.88 377.308 79.232 377.308 81.888C377.308 84.544 377.852 86.928 378.94 89.04C380.06 91.12 381.564 92.752 383.452 93.936C385.372 95.088 387.484 95.664 389.788 95.664C391.836 95.664 393.644 95.248 395.212 94.416C396.812 93.584 398.06 92.528 398.956 91.248V95.232H404.476V59.712H398.956V72.48C397.964 71.232 396.62 70.24 394.924 69.504C393.26 68.736 391.564 68.352 389.836 68.352C387.5 68.352 385.372 68.928 383.452 70.08C381.564 71.2 380.06 72.784 378.94 74.832ZM397.804 77.232C398.572 78.576 398.956 80.16 398.956 81.984C398.956 83.808 398.572 85.408 397.804 86.784C397.068 88.128 396.092 89.152 394.876 89.856C393.66 90.56 392.348 90.912 390.94 90.912C389.564 90.912 388.252 90.56 387.004 89.856C385.788 89.12 384.796 88.064 384.028 86.688C383.292 85.312 382.924 83.712 382.924 81.888C382.924 80.064 383.292 78.496 384.028 77.184C384.796 75.84 385.788 74.832 387.004 74.16C388.22 73.456 389.532 73.104 390.94 73.104C392.348 73.104 393.66 73.456 394.876 74.16C396.092 74.864 397.068 75.888 397.804 77.232ZM415.647 94.56C417.311 95.296 419.183 95.664 421.263 95.664C423.311 95.664 425.087 95.328 426.591 94.656C428.127 93.984 429.311 93.056 430.143 91.872C430.975 90.688 431.391 89.344 431.391 87.84C431.359 86.144 430.895 84.784 429.999 83.76C429.103 82.736 428.031 81.968 426.783 81.456C425.567 80.912 423.999 80.384 422.079 79.872C420.639 79.456 419.551 79.12 418.815 78.864C418.079 78.576 417.455 78.192 416.943 77.712C416.431 77.232 416.175 76.64 416.175 75.936C416.175 75.04 416.559 74.32 417.327 73.776C418.095 73.232 419.199 72.96 420.639 72.96C422.111 72.96 423.279 73.312 424.143 74.016C425.007 74.72 425.487 75.664 425.583 76.848H431.055C430.927 74.224 429.935 72.16 428.079 70.656C426.255 69.12 423.839 68.352 420.831 68.352C418.815 68.352 417.023 68.688 415.455 69.36C413.919 70.032 412.735 70.96 411.903 72.144C411.071 73.296 410.655 74.576 410.655 75.984C410.655 77.712 411.103 79.104 411.999 80.16C412.927 81.216 414.015 82 415.263 82.512C416.511 83.024 418.127 83.552 420.111 84.096C422.159 84.672 423.647 85.2 424.575 85.68C425.535 86.16 426.015 86.896 426.015 87.888C426.015 88.816 425.583 89.584 424.719 90.192C423.887 90.768 422.703 91.056 421.167 91.056C419.695 91.056 418.463 90.688 417.471 89.952C416.511 89.184 415.983 88.24 415.887 87.12H410.223C410.287 88.72 410.799 90.176 411.759 91.488C412.719 92.768 414.015 93.792 415.647 94.56ZM473.725 95.232V68.784H468.253V83.52C468.253 85.888 467.645 87.712 466.429 88.992C465.245 90.24 463.629 90.864 461.581 90.864C459.533 90.864 457.917 90.24 456.733 88.992C455.549 87.712 454.957 85.888 454.957 83.52V68.784H449.533V84.336C449.533 86.736 449.997 88.784 450.925 90.48C451.885 92.176 453.181 93.456 454.813 94.32C456.477 95.184 458.349 95.616 460.429 95.616C461.997 95.616 463.469 95.312 464.845 94.704C466.253 94.064 467.389 93.2 468.253 92.112V95.232H473.725ZM484.928 94.56C486.592 95.296 488.464 95.664 490.544 95.664C492.592 95.664 494.368 95.328 495.872 94.656C497.409 93.984 498.592 93.056 499.424 91.872C500.256 90.688 500.672 89.344 500.672 87.84C500.641 86.144 500.177 84.784 499.28 83.76C498.384 82.736 497.312 81.968 496.064 81.456C494.849 80.912 493.28 80.384 491.36 79.872C489.92 79.456 488.832 79.12 488.096 78.864C487.36 78.576 486.736 78.192 486.224 77.712C485.712 77.232 485.456 76.64 485.456 75.936C485.456 75.04 485.84 74.32 486.608 73.776C487.376 73.232 488.48 72.96 489.92 72.96C491.392 72.96 492.56 73.312 493.424 74.016C494.289 74.72 494.768 75.664 494.865 76.848H500.336C500.208 74.224 499.216 72.16 497.36 70.656C495.536 69.12 493.12 68.352 490.112 68.352C488.096 68.352 486.304 68.688 484.736 69.36C483.2 70.032 482.016 70.96 481.184 72.144C480.352 73.296 479.936 74.576 479.936 75.984C479.936 77.712 480.384 79.104 481.28 80.16C482.208 81.216 483.296 82 484.544 82.512C485.792 83.024 487.408 83.552 489.392 84.096C491.44 84.672 492.928 85.2 493.857 85.68C494.816 86.16 495.297 86.896 495.297 87.888C495.297 88.816 494.865 89.584 494 90.192C493.168 90.768 491.984 91.056 490.448 91.056C488.977 91.056 487.744 90.688 486.752 89.952C485.792 89.184 485.264 88.24 485.168 87.12H479.504C479.568 88.72 480.08 90.176 481.04 91.488C482 92.768 483.296 93.792 484.928 94.56ZM506.873 64.272C507.545 64.944 508.377 65.28 509.369 65.28C510.329 65.28 511.145 64.944 511.817 64.272C512.489 63.6 512.825 62.768 512.825 61.776C512.825 60.784 512.489 59.952 511.817 59.28C511.145 58.608 510.329 58.272 509.369 58.272C508.377 58.272 507.545 58.608 506.873 59.28C506.201 59.952 505.865 60.784 505.865 61.776C505.865 62.768 506.201 63.6 506.873 64.272ZM512.057 95.232V68.784H506.585V95.232H512.057ZM538.153 69.648C536.521 68.784 534.665 68.352 532.585 68.352C531.017 68.352 529.529 68.656 528.121 69.264C526.745 69.872 525.609 70.72 524.713 71.808V68.784H519.241V95.232H524.713V80.448C524.713 78.08 525.305 76.272 526.489 75.024C527.705 73.744 529.337 73.104 531.385 73.104C533.433 73.104 535.049 73.744 536.233 75.024C537.417 76.272 538.009 78.08 538.009 80.448V95.232H543.433V79.632C543.433 77.232 542.969 75.184 542.041 73.488C541.113 71.792 539.817 70.512 538.153 69.648ZM566.493 69.6C564.925 68.768 563.117 68.352 561.069 68.352C558.765 68.352 556.653 68.928 554.733 70.08C552.845 71.2 551.341 72.784 550.221 74.832C549.133 76.88 548.589 79.232 548.589 81.888C548.589 84.544 549.133 86.928 550.221 89.04C551.341 91.12 552.845 92.752 554.733 93.936C556.653 95.088 558.765 95.664 561.069 95.664C563.085 95.664 564.877 95.248 566.445 94.416C568.045 93.552 569.309 92.496 570.237 91.248V95.664C570.237 98.224 569.549 100.176 568.173 101.52C566.829 102.864 565.053 103.536 562.845 103.536C560.957 103.536 559.325 103.104 557.949 102.24C556.605 101.408 555.725 100.304 555.309 98.928H549.885C550.205 101.808 551.549 104.08 553.917 105.744C556.285 107.44 559.261 108.288 562.845 108.288C565.533 108.288 567.837 107.744 569.757 106.656C571.709 105.568 573.197 104.064 574.221 102.144C575.245 100.256 575.757 98.096 575.757 95.664V68.784H570.237V72.624C569.341 71.408 568.093 70.4 566.493 69.6ZM569.085 77.232C569.853 78.576 570.237 80.16 570.237 81.984C570.237 83.808 569.853 85.408 569.085 86.784C568.349 88.128 567.373 89.152 566.157 89.856C564.941 90.56 563.629 90.912 562.221 90.912C560.845 90.912 559.533 90.56 558.285 89.856C557.069 89.12 556.077 88.064 555.309 86.688C554.573 85.312 554.205 83.712 554.205 81.888C554.205 80.064 554.573 78.496 555.309 77.184C556.077 75.84 557.069 74.832 558.285 74.16C559.501 73.456 560.813 73.104 562.221 73.104C563.629 73.104 564.941 73.456 566.157 74.16C567.373 74.864 568.349 75.888 569.085 77.232ZM601.557 88.416H615.525L617.925 95.232H623.685L611.733 61.824H605.397L593.445 95.232H599.157L601.557 88.416ZM608.565 68.448L613.989 83.952H603.093L608.565 68.448ZM634.354 95.232V61.872H628.882V95.232H634.354ZM641.25 94.56C641.922 95.232 642.754 95.568 643.746 95.568C644.706 95.568 645.522 95.232 646.194 94.56C646.866 93.888 647.202 93.056 647.202 92.064C647.202 91.072 646.866 90.24 646.194 89.568C645.522 88.896 644.706 88.56 643.746 88.56C642.754 88.56 641.922 88.896 641.25 89.568C640.578 90.24 640.242 91.072 640.242 92.064C640.242 93.056 640.578 93.888 641.25 94.56Z" fill="url(#paint0_linear_161_3908)"/>
<defs>
<linearGradient id="paint0_linear_161_3908" x1="-22.0555" y1="54.5" x2="666.944" y2="54.5" gradientUnits="userSpaceOnUse">
<stop stop-color="#D9D9D9"/>
<stop offset="1" stop-color="#737373"/>
</linearGradient>
</defs>
</svg>
