<svg width="17" height="18" viewBox="0 0 17 18" fill="none" xmlns="http://www.w3.org/2000/svg">
<path d="M6.08333 17.3333L5.75 14.6667C5.56944 14.5972 5.39931 14.5139 5.23958 14.4167C5.07986 14.3194 4.92361 14.2153 4.77083 14.1042L2.29167 15.1458L0 11.1875L2.14583 9.56249C2.13194 9.46527 2.125 9.37152 2.125 9.28124C2.125 9.19097 2.125 9.09722 2.125 8.99999C2.125 8.90277 2.125 8.80902 2.125 8.71874C2.125 8.62847 2.13194 8.53472 2.14583 8.43749L0 6.81249L2.29167 2.85416L4.77083 3.89583C4.92361 3.78472 5.08333 3.68055 5.25 3.58333C5.41667 3.4861 5.58333 3.40277 5.75 3.33333L6.08333 0.66666H10.6667L11 3.33333C11.1806 3.40277 11.3507 3.4861 11.5104 3.58333C11.6701 3.68055 11.8264 3.78472 11.9792 3.89583L14.4583 2.85416L16.75 6.81249L14.6042 8.43749C14.6181 8.53472 14.625 8.62847 14.625 8.71874C14.625 8.80902 14.625 8.90277 14.625 8.99999C14.625 9.09722 14.625 9.19097 14.625 9.28124C14.625 9.37152 14.6111 9.46527 14.5833 9.56249L16.7292 11.1875L14.4375 15.1458L11.9792 14.1042C11.8264 14.2153 11.6667 14.3194 11.5 14.4167C11.3333 14.5139 11.1667 14.5972 11 14.6667L10.6667 17.3333H6.08333ZM7.54167 15.6667H9.1875L9.47917 13.4583C9.90972 13.3472 10.309 13.184 10.6771 12.9687C11.0451 12.7535 11.3819 12.493 11.6875 12.1875L13.75 13.0417L14.5625 11.625L12.7708 10.2708C12.8403 10.0764 12.8889 9.87152 12.9167 9.65624C12.9444 9.44097 12.9583 9.22222 12.9583 8.99999C12.9583 8.77777 12.9444 8.55902 12.9167 8.34374C12.8889 8.12847 12.8403 7.9236 12.7708 7.72916L14.5625 6.37499L13.75 4.95833L11.6875 5.83333C11.3819 5.51388 11.0451 5.24652 10.6771 5.03124C10.309 4.81597 9.90972 4.65277 9.47917 4.54166L9.20833 2.33333H7.5625L7.27083 4.54166C6.84028 4.65277 6.44097 4.81597 6.07292 5.03124C5.70486 5.24652 5.36806 5.50694 5.0625 5.81249L3 4.95833L2.1875 6.37499L3.97917 7.70833C3.90972 7.91666 3.86111 8.12499 3.83333 8.33333C3.80556 8.54166 3.79167 8.76388 3.79167 8.99999C3.79167 9.22222 3.80556 9.43749 3.83333 9.64583C3.86111 9.85416 3.90972 10.0625 3.97917 10.2708L2.1875 11.625L3 13.0417L5.0625 12.1667C5.36806 12.4861 5.70486 12.7535 6.07292 12.9687C6.44097 13.184 6.84028 13.3472 7.27083 13.4583L7.54167 15.6667ZM8.41667 11.9167C9.22222 11.9167 9.90972 11.6319 10.4792 11.0625C11.0486 10.493 11.3333 9.80555 11.3333 8.99999C11.3333 8.19444 11.0486 7.50694 10.4792 6.93749C9.90972 6.36805 9.22222 6.08333 8.41667 6.08333C7.59722 6.08333 6.90625 6.36805 6.34375 6.93749C5.78125 7.50694 5.5 8.19444 5.5 8.99999C5.5 9.80555 5.78125 10.493 6.34375 11.0625C6.90625 11.6319 7.59722 11.9167 8.41667 11.9167Z" fill="#3C4043"/>
</svg>
