<svg width="17" height="18" viewBox="0 0 17 18" fill="none" xmlns="http://www.w3.org/2000/svg">
<path d="M8.29167 14C8.58333 14 8.82986 13.8993 9.03125 13.6979C9.23264 13.4965 9.33333 13.25 9.33333 12.9583C9.33333 12.6667 9.23264 12.4201 9.03125 12.2188C8.82986 12.0174 8.58333 11.9167 8.29167 11.9167C8 11.9167 7.75347 12.0174 7.55208 12.2188C7.3507 12.4201 7.25 12.6667 7.25 12.9583C7.25 13.25 7.3507 13.4965 7.55208 13.6979C7.75347 13.8993 8 14 8.29167 14ZM7.54167 10.7917H9.08333C9.08333 10.3333 9.13542 9.97223 9.23958 9.70834C9.34375 9.44445 9.63889 9.08334 10.125 8.62501C10.4861 8.2639 10.7708 7.92015 10.9792 7.59376C11.1875 7.26737 11.2917 6.87501 11.2917 6.41668C11.2917 5.6389 11.0069 5.04168 10.4375 4.62501C9.86806 4.20834 9.19445 4.00001 8.41667 4.00001C7.625 4.00001 6.98264 4.20834 6.48958 4.62501C5.99653 5.04168 5.65278 5.54168 5.45833 6.12501L6.83333 6.66668C6.90278 6.41668 7.05903 6.14584 7.30208 5.85418C7.54514 5.56251 7.91667 5.41668 8.41667 5.41668C8.86111 5.41668 9.19445 5.5382 9.41667 5.78126C9.63889 6.02431 9.75 6.29168 9.75 6.58334C9.75 6.86112 9.66667 7.12154 9.5 7.36459C9.33333 7.60765 9.125 7.83334 8.875 8.04168C8.26389 8.58334 7.88889 8.99306 7.75 9.27084C7.61111 9.54862 7.54167 10.0556 7.54167 10.7917ZM8.33333 17.3333C7.18056 17.3333 6.09722 17.1146 5.08333 16.6771C4.06944 16.2396 3.1875 15.6458 2.4375 14.8958C1.6875 14.1458 1.09375 13.2639 0.65625 12.25C0.21875 11.2361 0 10.1528 0 9.00001C0 7.84723 0.21875 6.7639 0.65625 5.75001C1.09375 4.73612 1.6875 3.85418 2.4375 3.10418C3.1875 2.35418 4.06944 1.76042 5.08333 1.32292C6.09722 0.885425 7.18056 0.666675 8.33333 0.666675C9.48611 0.666675 10.5694 0.885425 11.5833 1.32292C12.5972 1.76042 13.4792 2.35418 14.2292 3.10418C14.9792 3.85418 15.5729 4.73612 16.0104 5.75001C16.4479 6.7639 16.6667 7.84723 16.6667 9.00001C16.6667 10.1528 16.4479 11.2361 16.0104 12.25C15.5729 13.2639 14.9792 14.1458 14.2292 14.8958C13.4792 15.6458 12.5972 16.2396 11.5833 16.6771C10.5694 17.1146 9.48611 17.3333 8.33333 17.3333ZM8.33333 15.6667C10.1944 15.6667 11.7708 15.0208 13.0625 13.7292C14.3542 12.4375 15 10.8611 15 9.00001C15 7.1389 14.3542 5.56251 13.0625 4.27084C11.7708 2.97918 10.1944 2.33334 8.33333 2.33334C6.47222 2.33334 4.89583 2.97918 3.60417 4.27084C2.3125 5.56251 1.66667 7.1389 1.66667 9.00001C1.66667 10.8611 2.3125 12.4375 3.60417 13.7292C4.89583 15.0208 6.47222 15.6667 8.33333 15.6667Z" fill="#3C4043"/>
</svg>
