<svg width="15" height="16" viewBox="0 0 15 16" fill="none" xmlns="http://www.w3.org/2000/svg">
<path d="M7.5 15.5C5.58333 15.5 3.91319 14.8646 2.48958 13.5937C1.06597 12.3229 0.25 10.7361 0.0416667 8.83333H1.75C1.94444 10.2778 2.58681 11.4722 3.67708 12.4167C4.76736 13.3611 6.04167 13.8333 7.5 13.8333C9.125 13.8333 10.5035 13.2674 11.6354 12.1354C12.7674 11.0035 13.3333 9.625 13.3333 8C13.3333 6.375 12.7674 4.99653 11.6354 3.86458C10.5035 2.73264 9.125 2.16667 7.5 2.16667C6.54167 2.16667 5.64583 2.38889 4.8125 2.83333C3.97917 3.27778 3.27778 3.88889 2.70833 4.66667H5V6.33333H0V1.33333H1.66667V3.29167C2.375 2.40278 3.23958 1.71528 4.26042 1.22917C5.28125 0.743055 6.36111 0.5 7.5 0.5C8.54167 0.5 9.51736 0.697916 10.4271 1.09375C11.3368 1.48958 12.1285 2.02431 12.8021 2.69792C13.4757 3.37153 14.0104 4.16319 14.4063 5.07292C14.8021 5.98264 15 6.95833 15 8C15 9.04167 14.8021 10.0174 14.4063 10.9271C14.0104 11.8368 13.4757 12.6285 12.8021 13.3021C12.1285 13.9757 11.3368 14.5104 10.4271 14.9062C9.51736 15.3021 8.54167 15.5 7.5 15.5ZM9.83333 11.5L6.66667 8.33333V3.83333H8.33333V7.66667L11 10.3333L9.83333 11.5Z" fill="#3C4043"/>
</svg>
