<svg width="15" height="16" viewBox="0 0 15 16" fill="none" xmlns="http://www.w3.org/2000/svg">
<path d="M12.5013 9.40182C12.5026 9.60569 12.4406 9.80494 12.324 9.97215C12.2074 10.1394 12.0418 10.2663 11.8501 10.3356L8.62194 11.5231L7.43445 14.7487C7.36412 14.9397 7.23689 15.1046 7.06992 15.2211C6.90295 15.3375 6.70427 15.4 6.5007 15.4C6.29712 15.4 6.09844 15.3375 5.93147 15.2211C5.7645 15.1046 5.63727 14.9397 5.56695 14.7487L4.37632 11.5268L1.15007 10.3393C0.959026 10.269 0.794149 10.1418 0.677686 9.9748C0.561223 9.80783 0.498779 9.60915 0.498779 9.40557C0.498779 9.202 0.561223 9.00332 0.677686 8.83635C0.794149 8.66938 0.959026 8.54215 1.15007 8.47182L4.3782 7.28433L5.5657 4.0587C5.63602 3.86766 5.76325 3.70278 5.93022 3.58632C6.09719 3.46985 6.29587 3.40741 6.49945 3.40741C6.70302 3.40741 6.9017 3.46985 7.06867 3.58632C7.23564 3.70278 7.36287 3.86766 7.4332 4.0587L8.6207 7.28683L11.8463 8.47433C12.0378 8.54259 12.2034 8.66834 12.3207 8.83436C12.4379 9.00038 12.501 9.19858 12.5013 9.40182ZM9.00132 3.40182H10.0013V4.40182C10.0013 4.53443 10.054 4.66161 10.1478 4.75538C10.2415 4.84915 10.3687 4.90182 10.5013 4.90182C10.6339 4.90182 10.7611 4.84915 10.8549 4.75538C10.9486 4.66161 11.0013 4.53443 11.0013 4.40182V3.40182H12.0013C12.1339 3.40182 12.2611 3.34915 12.3549 3.25538C12.4486 3.16161 12.5013 3.03443 12.5013 2.90182C12.5013 2.76922 12.4486 2.64204 12.3549 2.54827C12.2611 2.4545 12.1339 2.40182 12.0013 2.40182H11.0013V1.40182C11.0013 1.26922 10.9486 1.14204 10.8549 1.04827C10.7611 0.954503 10.6339 0.901825 10.5013 0.901825C10.3687 0.901825 10.2415 0.954503 10.1478 1.04827C10.054 1.14204 10.0013 1.26922 10.0013 1.40182V2.40182H9.00132C8.86871 2.40182 8.74153 2.4545 8.64777 2.54827C8.554 2.64204 8.50132 2.76922 8.50132 2.90182C8.50132 3.03443 8.554 3.16161 8.64777 3.25538C8.74153 3.34915 8.86871 3.40182 9.00132 3.40182ZM14.5013 5.40182H14.0013V4.90182C14.0013 4.76922 13.9486 4.64204 13.8549 4.54827C13.7611 4.4545 13.6339 4.40182 13.5013 4.40182C13.3687 4.40182 13.2415 4.4545 13.1478 4.54827C13.054 4.64204 13.0013 4.76922 13.0013 4.90182V5.40182H12.5013C12.3687 5.40182 12.2415 5.4545 12.1478 5.54827C12.054 5.64204 12.0013 5.76922 12.0013 5.90182C12.0013 6.03443 12.054 6.16161 12.1478 6.25538C12.2415 6.34915 12.3687 6.40182 12.5013 6.40182H13.0013V6.90182C13.0013 7.03443 13.054 7.16161 13.1478 7.25538C13.2415 7.34915 13.3687 7.40182 13.5013 7.40182C13.6339 7.40182 13.7611 7.34915 13.8549 7.25538C13.9486 7.16161 14.0013 7.03443 14.0013 6.90182V6.40182H14.5013C14.6339 6.40182 14.7611 6.34915 14.8549 6.25538C14.9486 6.16161 15.0013 6.03443 15.0013 5.90182C15.0013 5.76922 14.9486 5.64204 14.8549 5.54827C14.7611 5.4545 14.6339 5.40182 14.5013 5.40182Z" fill="white"/>
</svg>
