<svg width="13" height="14" viewBox="0 0 13 14" fill="none" xmlns="http://www.w3.org/2000/svg">
<path d="M12.5001 6.99997V12.395C12.5004 12.4548 12.4888 12.5141 12.4661 12.5695C12.4433 12.6248 12.4098 12.6751 12.3675 12.7174C12.3252 12.7598 12.2749 12.7933 12.2196 12.816C12.1642 12.8388 12.1049 12.8503 12.0451 12.85H1.25506C1.19521 12.8503 1.1359 12.8388 1.08054 12.816C1.02519 12.7933 0.9749 12.7598 0.932583 12.7174C0.890266 12.6751 0.856764 12.6248 0.834015 12.5695C0.811267 12.5141 0.799724 12.4548 0.800056 12.395V1.60497C0.799724 1.54513 0.811267 1.48581 0.834015 1.43046C0.856764 1.37511 0.890266 1.32481 0.932583 1.2825C0.9749 1.24018 1.02519 1.20668 1.08054 1.18393C1.1359 1.16118 1.19521 1.14964 1.25506 1.14997H6.65006M8.73006 1.14997H12.5001V5.04497M3.48006 10.43L12.3026 1.22747" stroke="#0B57D0"/>
</svg>
