<svg width="16" height="16" viewBox="0 0 16 16" fill="none" xmlns="http://www.w3.org/2000/svg">
<path d="M12.7022 9.28986C12.7035 9.49372 12.6416 9.69297 12.525 9.86018C12.4083 10.0274 12.2427 10.1544 12.051 10.2236L8.82287 11.4111L7.63537 14.6367C7.56505 14.8278 7.43782 14.9927 7.27085 15.1091C7.10388 15.2256 6.9052 15.288 6.70162 15.288C6.49805 15.288 6.29937 15.2256 6.1324 15.1091C5.96543 14.9927 5.8382 14.8278 5.76787 14.6367L4.57725 11.4149L1.351 10.2274C1.15995 10.157 0.995077 10.0298 0.878614 9.86283C0.762151 9.69586 0.699707 9.49718 0.699707 9.29361C0.699707 9.09003 0.762151 8.89135 0.878614 8.72438C0.995077 8.55741 1.15995 8.43018 1.351 8.35986L4.57912 7.17236L5.76662 3.94673C5.83695 3.75569 5.96418 3.59081 6.13115 3.47435C6.29812 3.35788 6.4968 3.29544 6.70037 3.29544C6.90395 3.29544 7.10263 3.35788 7.2696 3.47435C7.43657 3.59081 7.5638 3.75569 7.63412 3.94673L8.82162 7.17486L12.0472 8.36236C12.2387 8.43062 12.4044 8.55637 12.5216 8.72239C12.6389 8.88841 12.7019 9.08661 12.7022 9.28986ZM9.20225 3.28986H10.2022V4.28986C10.2022 4.42246 10.2549 4.54964 10.3487 4.64341C10.4425 4.73718 10.5696 4.78986 10.7022 4.78986C10.8349 4.78986 10.962 4.73718 11.0558 4.64341C11.1496 4.54964 11.2022 4.42246 11.2022 4.28986V3.28986H12.2022C12.3349 3.28986 12.462 3.23718 12.5558 3.14341C12.6496 3.04964 12.7022 2.92246 12.7022 2.78986C12.7022 2.65725 12.6496 2.53007 12.5558 2.4363C12.462 2.34253 12.3349 2.28986 12.2022 2.28986H11.2022V1.28986C11.2022 1.15725 11.1496 1.03007 11.0558 0.936303C10.962 0.842534 10.8349 0.789856 10.7022 0.789856C10.5696 0.789856 10.4425 0.842534 10.3487 0.936303C10.2549 1.03007 10.2022 1.15725 10.2022 1.28986V2.28986H9.20225C9.06964 2.28986 8.94246 2.34253 8.84869 2.4363C8.75493 2.53007 8.70225 2.65725 8.70225 2.78986C8.70225 2.92246 8.75493 3.04964 8.84869 3.14341C8.94246 3.23718 9.06964 3.28986 9.20225 3.28986ZM14.7022 5.28986H14.2022V4.78986C14.2022 4.65725 14.1496 4.53007 14.0558 4.4363C13.962 4.34253 13.8349 4.28986 13.7022 4.28986C13.5696 4.28986 13.4425 4.34253 13.3487 4.4363C13.2549 4.53007 13.2022 4.65725 13.2022 4.78986V5.28986H12.7022C12.5696 5.28986 12.4425 5.34253 12.3487 5.4363C12.2549 5.53007 12.2022 5.65725 12.2022 5.78986C12.2022 5.92246 12.2549 6.04964 12.3487 6.14341C12.4425 6.23718 12.5696 6.28986 12.7022 6.28986H13.2022V6.78986C13.2022 6.92246 13.2549 7.04964 13.3487 7.14341C13.4425 7.23718 13.5696 7.28986 13.7022 7.28986C13.8349 7.28986 13.962 7.23718 14.0558 7.14341C14.1496 7.04964 14.2022 6.92246 14.2022 6.78986V6.28986H14.7022C14.8349 6.28986 14.962 6.23718 15.0558 6.14341C15.1496 6.04964 15.2022 5.92246 15.2022 5.78986C15.2022 5.65725 15.1496 5.53007 15.0558 5.4363C14.962 5.34253 14.8349 5.28986 14.7022 5.28986Z" fill="black"/>
</svg>
