<svg width="14" height="14" viewBox="0 0 14 14" fill="none" xmlns="http://www.w3.org/2000/svg">
<path d="M11.2857 12.1429C11.2857 12.6163 11.6695 13 12.1429 13C12.6163 13 13 12.6163 13 12.1429C13 11.6695 12.6163 11.2857 12.1429 11.2857C11.6695 11.2857 11.2857 11.6695 11.2857 12.1429Z" stroke="black" stroke-width="2" stroke-linecap="round" stroke-linejoin="round"/>
<path d="M6.14286 12.1429C6.14286 12.6163 6.5266 13 7 13C7.4734 13 7.85714 12.6163 7.85714 12.1429C7.85714 11.6695 7.4734 11.2857 7 11.2857C6.5266 11.2857 6.14286 11.6695 6.14286 12.1429Z" stroke="black" stroke-width="2" stroke-linecap="round" stroke-linejoin="round"/>
<path d="M1 12.1429C1 12.6163 1.38376 13 1.85714 13C2.33053 13 2.71429 12.6163 2.71429 12.1429C2.71429 11.6695 2.33053 11.2857 1.85714 11.2857C1.38376 11.2857 1 11.6695 1 12.1429Z" stroke="black" stroke-width="2" stroke-linecap="round" stroke-linejoin="round"/>
<path d="M11.2857 7C11.2857 7.4734 11.6695 7.85714 12.1429 7.85714C12.6163 7.85714 13 7.4734 13 7C13 6.5266 12.6163 6.14286 12.1429 6.14286C11.6695 6.14286 11.2857 6.5266 11.2857 7Z" stroke="black" stroke-width="2" stroke-linecap="round" stroke-linejoin="round"/>
<path d="M6.14286 7C6.14286 7.4734 6.5266 7.85714 7 7.85714C7.4734 7.85714 7.85714 7.4734 7.85714 7C7.85714 6.5266 7.4734 6.14286 7 6.14286C6.5266 6.14286 6.14286 6.5266 6.14286 7Z" stroke="black" stroke-width="2" stroke-linecap="round" stroke-linejoin="round"/>
<path d="M1 7C1 7.4734 1.38376 7.85714 1.85714 7.85714C2.33053 7.85714 2.71429 7.4734 2.71429 7C2.71429 6.5266 2.33053 6.14286 1.85714 6.14286C1.38376 6.14286 1 6.5266 1 7Z" stroke="black" stroke-width="2" stroke-linecap="round" stroke-linejoin="round"/>
<path d="M11.2857 1.85714C11.2857 2.33053 11.6695 2.71429 12.1429 2.71429C12.6163 2.71429 13 2.33053 13 1.85714C13 1.38376 12.6163 1 12.1429 1C11.6695 1 11.2857 1.38376 11.2857 1.85714Z" stroke="black" stroke-width="2" stroke-linecap="round" stroke-linejoin="round"/>
<path d="M6.14286 1.85714C6.14286 2.33053 6.5266 2.71429 7 2.71429C7.4734 2.71429 7.85714 2.33053 7.85714 1.85714C7.85714 1.38376 7.4734 1 7 1C6.5266 1 6.14286 1.38376 6.14286 1.85714Z" stroke="black" stroke-width="2" stroke-linecap="round" stroke-linejoin="round"/>
<path d="M1 1.85714C1 2.33053 1.38376 2.71429 1.85714 2.71429C2.33053 2.71429 2.71429 2.33053 2.71429 1.85714C2.71429 1.38376 2.33053 1 1.85714 1C1.38376 1 1 1.38376 1 1.85714Z" stroke="black" stroke-width="2" stroke-linecap="round" stroke-linejoin="round"/>
</svg>
